<svg version="1.0" xmlns="http://www.w3.org/2000/svg" width="26px" height="26px" viewBox="0 0 260 260" preserveAspectRatio="xMidYMid meet">
<g id="layer101" fill="#000000" stroke="none">
 <path d="M0 130 l0 -130 130 0 130 0 0 130 0 130 -130 0 -130 0 0 -130z"/>
 </g>
<g id="layer102" fill="#808080" stroke="none">
 <path d="M0 130 l0 -130 130 0 130 0 0 130 0 130 -130 0 -130 0 0 -130z m191 61 c17 -18 29 -40 29 -56 0 -35 -50 -85 -85 -85 -35 0 -85 50 -85 85 0 16 12 38 29 56 18 17 40 29 56 29 16 0 38 -12 56 -29z"/>
 <path d="M85 185 c-14 -13 -25 -36 -25 -50 0 -14 11 -37 25 -50 13 -14 36 -25 50 -25 14 0 37 11 50 25 32 31 32 69 0 100 -31 32 -69 32 -100 0z m86 -22 c11 -15 11 -16 -1 -5 -8 6 -23 12 -35 12 -12 0 -27 -6 -35 -12 -12 -11 -12 -10 -1 5 7 9 24 17 36 17 12 0 29 -8 36 -17z m-51 -53 c0 -5 -4 -10 -10 -10 -5 0 -10 5 -10 10 0 6 5 10 10 10 6 0 10 -4 10 -10z m50 0 c0 -5 -4 -10 -10 -10 -5 0 -10 5 -10 10 0 6 5 10 10 10 6 0 10 -4 10 -10z"/>
 </g>
<g id="layer103" fill="#ffff00" stroke="none">
 <path d="M8 135 l3 -124 124 -3 c112 -3 122 -2 109 13 -10 11 -14 42 -14 112 l0 97 -97 0 c-70 0 -101 4 -112 14 -15 13 -16 3 -13 -109z m183 56 c17 -18 29 -40 29 -56 0 -35 -50 -85 -85 -85 -35 0 -85 50 -85 85 0 16 12 38 29 56 18 17 40 29 56 29 16 0 38 -12 56 -29z"/>
 <path d="M85 185 c-14 -13 -25 -36 -25 -50 0 -14 11 -37 25 -50 13 -14 36 -25 50 -25 14 0 37 11 50 25 32 31 32 69 0 100 -31 32 -69 32 -100 0z m86 -22 c11 -15 11 -16 -1 -5 -8 6 -23 12 -35 12 -12 0 -27 -6 -35 -12 -12 -11 -12 -10 -1 5 7 9 24 17 36 17 12 0 29 -8 36 -17z m-51 -53 c0 -5 -4 -10 -10 -10 -5 0 -10 5 -10 10 0 6 5 10 10 10 6 0 10 -4 10 -10z m50 0 c0 -5 -4 -10 -10 -10 -5 0 -10 5 -10 10 0 6 5 10 10 10 6 0 10 -4 10 -10z"/>
 </g>
<g id="layer104" fill="#c0c0c0" stroke="none">
 <path d="M8 135 l3 -124 124 -3 c112 -3 122 -2 109 13 -10 11 -14 42 -14 112 l0 97 -97 0 c-70 0 -101 4 -112 14 -15 13 -16 3 -13 -109z m183 56 c17 -18 29 -40 29 -56 0 -35 -50 -85 -85 -85 -35 0 -85 50 -85 85 0 16 12 38 29 56 18 17 40 29 56 29 16 0 38 -12 56 -29z"/>
 </g>
<g id="layer105" fill="#ffffff" stroke="none">
 <path d="M10 126 l0 -116 116 0 c74 0 113 4 109 10 -3 6 -50 10 -106 10 l-99 0 0 99 c0 56 -4 103 -10 106 -6 4 -10 -35 -10 -109z"/>
 </g>

</svg>